<?xml version="1.0" encoding="UTF-8" standalone="no"?>
<!-- Created with Inkscape (http://www.inkscape.org/) -->

<svg
   xmlns:dc="http://purl.org/dc/elements/1.1/"
   xmlns:cc="http://creativecommons.org/ns#"
   xmlns:rdf="http://www.w3.org/1999/02/22-rdf-syntax-ns#"
   xmlns:svg="http://www.w3.org/2000/svg"
   xmlns="http://www.w3.org/2000/svg"
   xmlns:sodipodi="http://sodipodi.sourceforge.net/DTD/sodipodi-0.dtd"
   xmlns:inkscape="http://www.inkscape.org/namespaces/inkscape"
   width="210mm"
   height="297mm"
   viewBox="0 0 210 297"
   version="1.1"
   id="svg8"
   inkscape:version="0.92.1 r15371"
   sodipodi:docname="logo.svg">
  <defs
     id="defs2">
    <pattern
       y="0"
       x="0"
       height="6"
       width="6"
       patternUnits="userSpaceOnUse"
       id="EMFhbasepattern" />
  </defs>
  <sodipodi:namedview
     id="base"
     pagecolor="#ffffff"
     bordercolor="#666666"
     borderopacity="1.0"
     inkscape:pageopacity="0.0"
     inkscape:pageshadow="2"
     inkscape:zoom="0.5"
     inkscape:cx="-1160.5236"
     inkscape:cy="1774.4495"
     inkscape:document-units="px"
     inkscape:current-layer="layer1"
     showgrid="false"
     showborder="false"
     inkscape:window-width="1920"
     inkscape:window-height="1058"
     inkscape:window-x="1358"
     inkscape:window-y="-8"
     inkscape:window-maximized="1"
     inkscape:snap-nodes="false" />
  <metadata
     id="metadata5">
    <rdf:RDF>
      <cc:Work
         rdf:about="">
        <dc:format>image/svg+xml</dc:format>
        <dc:type
           rdf:resource="http://purl.org/dc/dcmitype/StillImage" />
        <dc:title></dc:title>
      </cc:Work>
    </rdf:RDF>
  </metadata>
  <g
     inkscape:label="Layer 1"
     inkscape:groupmode="layer"
     id="layer1">
    <path
       style="opacity:1;vector-effect:none;fill:#800000;fill-opacity:1;fill-rule:nonzero;stroke:none;stroke-width:0.33975798;stroke-linecap:square;stroke-linejoin:miter;stroke-miterlimit:4;stroke-dasharray:none;stroke-dashoffset:0;stroke-opacity:1;paint-order:fill markers stroke"
       d="m -719.93829,-125.00341 c 69.47851,0 138.95703,0 208.43555,0 0,-69.47851 0,-138.95703 0,-208.43555 -69.47852,0 -138.95704,0 -208.43555,0 0,69.47852 0,138.95704 0,208.43555 z"
       id="path4862"
       inkscape:connector-curvature="0" />
    <path
       style="opacity:1;vector-effect:none;fill:#ffffff;fill-opacity:1;fill-rule:nonzero;stroke:none;stroke-width:0.33975798;stroke-linecap:square;stroke-linejoin:miter;stroke-miterlimit:4;stroke-dasharray:none;stroke-dashoffset:0;stroke-opacity:1;paint-order:fill markers stroke"
       d="m -715.93829,-129.00341 c 66.81185,0 133.6237,0 200.43555,0 0,-66.81185 0,-133.6237 0,-200.43555 -66.81185,0 -133.6237,0 -200.43555,0 0,66.81185 0,133.6237 0,200.43555 z"
       id="path4856"
       inkscape:connector-curvature="0" />
    <path
       style="opacity:1;vector-effect:none;fill:#800000;fill-opacity:1;fill-rule:nonzero;stroke:none;stroke-width:0.33975798;stroke-linecap:square;stroke-linejoin:miter;stroke-miterlimit:4;stroke-dasharray:none;stroke-dashoffset:0;stroke-opacity:1;paint-order:fill markers stroke"
       d="m -713.93829,-325.43896 c 0,64.81185 0,129.6237 0,194.43555 65.47851,0 130.95703,0 196.43555,0 0,-65.47851 0,-130.95703 0,-196.43555 -65.47852,0 -130.95704,0 -196.43555,0 v 1 z"
       id="path4688"
       inkscape:connector-curvature="0" />
    <path
       style="opacity:1;vector-effect:none;fill:#ffffff;fill-opacity:1;fill-rule:nonzero;stroke:none;stroke-width:0.33975798;stroke-linecap:square;stroke-linejoin:miter;stroke-miterlimit:4;stroke-dasharray:none;stroke-dashoffset:0;stroke-opacity:1;paint-order:fill markers stroke"
       d="m -697.93829,-147.00341 c 54.81185,0 109.6237,0 164.43555,0 0,-54.81185 0,-109.6237 0,-164.43555 -54.81185,0 -109.6237,0 -164.43555,0 0,54.81185 0,109.6237 0,164.43555 z"
       id="path4682"
       inkscape:connector-curvature="0" />
    <path
       style="opacity:1;vector-effect:none;fill:#800000;fill-opacity:1;fill-rule:nonzero;stroke:none;stroke-width:0.33975798;stroke-linecap:square;stroke-linejoin:miter;stroke-miterlimit:4;stroke-dasharray:none;stroke-dashoffset:0;stroke-opacity:1;paint-order:fill markers stroke"
       d="m -695.93829,-149.00341 c 53.47851,0 106.95703,0 160.43555,0 0,-53.47851 0,-106.95703 0,-160.43555 -53.47852,0 -106.95704,0 -160.43555,0 0,53.47852 0,106.95704 0,160.43555 z"
       id="rect4672"
       inkscape:connector-curvature="0" />
    <rect
       style="opacity:1;vector-effect:none;fill:#800000;fill-opacity:1;fill-rule:nonzero;stroke:none;stroke-width:0.33975798;stroke-linecap:square;stroke-linejoin:miter;stroke-miterlimit:4;stroke-dasharray:none;stroke-dashoffset:0;stroke-opacity:1;paint-order:fill markers stroke"
       id="rect4602"
       width="152.43513"
       height="152.43513"
       x="143.59886"
       y="-242"
       ry="0" />
    <g
       id="g4600"
       style="fill:#ffffff"
       transform="translate(-551.1629,-366.14794)">
      <path
         id="path4488"
         transform="scale(0.26458333)"
         d="m -19.949219,709.56445 v 32.00586 32.00781 32.00782 H 12.058594 44.066406 V 773.57812 H 12.058594 v -32.00781 h 32.007812 v -32.00586 z"
         style="fill:#ffffff;fill-opacity:1;fill-rule:evenodd;stroke:none;stroke-width:0.99999994"
         inkscape:connector-curvature="0" />
      <path
         transform="scale(0.26458333)"
         id="path4494"
         d="M -91.964844,405.49414 V 741.57031 H -532.06641 v 64.01563 H -27.951172 V 741.57031 405.49414 Z"
         style="fill:#ffffff;fill-opacity:1;fill-rule:evenodd;stroke:none;stroke-width:0.99999994"
         inkscape:connector-curvature="0" />
      <path
         id="path4496"
         transform="scale(0.26458333)"
         d="M -163.98242,485.51172 V 661.55273 H -468.05078 V 501.51562 h -64.01563 v 224.05079 h 64.01563 368.083983 V 661.55273 485.51172 Z"
         style="fill:#ffffff;fill-opacity:1;fill-rule:evenodd;stroke:none;stroke-width:0.99999994"
         inkscape:connector-curvature="0" />
      <path
         inkscape:connector-curvature="0"
         style="fill:#ffffff;fill-opacity:1;fill-rule:evenodd;stroke:none;stroke-width:0.26458332"
         d="m -68.792635,153.86429 v 16.93721 h 21.171512 v -16.93721 z"
         id="path4498" />
      <path
         inkscape:connector-curvature="0"
         style="fill:#ffffff;fill-opacity:1;fill-rule:evenodd;stroke:none;stroke-width:0.26458332"
         d="m -119.60426,153.86429 v 16.93721 h 21.171514 v -16.93721 z"
         id="path4500" />
      <path
         inkscape:connector-curvature="0"
         style="fill:#ffffff;fill-opacity:1;fill-rule:evenodd;stroke:none;stroke-width:0.26458332"
         d="m -94.198445,153.86429 v 16.93721 h 21.171509 v -16.93721 z"
         id="path4502" />
      <path
         id="path4508"
         transform="scale(0.26458333)"
         d="m -67.958984,229.45312 v 96.02344 h -32.007813 v -32.00781 h -64.015623 v 128.0293 H -179.98438 -244 v 80.01757 h -208.04688 v 64.01563 H -244 h 64.01562 v -96.02344 h 80.017583 V 421.49805 389.49023 H 44.066406 v -64.01367 h -64.015625 v -32.00781 h 64.015625 v -64.01563 h -64.015625 z"
         style="fill:#ffffff;fill-opacity:1;fill-rule:evenodd;stroke:none;stroke-width:0.99999994"
         inkscape:connector-curvature="0" />
      <path
         id="path4514"
         transform="scale(0.26458333)"
         d="m -532.06641,229.45312 v 256.0586 h 64.01563 144.0332 64.01367 V 405.49414 357.48242 H -372.0293 v -64.01367 h 32.00782 v 48.00977 H -276.00781 -244 -179.98438 V 229.45312 H -244 v 48.01172 h -32.00781 v -48.01172 h -64.01367 -32.00782 -64.01367 v 128.0293 48.01172 h 112.02539 v 32.00781 h -144.0332 V 229.45312 Z"
         style="fill:#ffffff;fill-opacity:1;fill-rule:evenodd;stroke:none;stroke-width:0.99999994"
         inkscape:connector-curvature="0" />
      <path
         inkscape:connector-curvature="0"
         style="fill:#ffffff;fill-opacity:1;fill-rule:evenodd;stroke:none;stroke-width:0.26458332"
         d="m -64.558333,94.584067 v 12.702903 h 16.93721 V 94.584067 Z"
         id="path4526" />
      <path
         inkscape:connector-curvature="0"
         style="fill:#ffffff;fill-opacity:1;fill-rule:evenodd;stroke:none;stroke-width:0.26458332"
         d="M -5.2781031,107.28697 V 183.5044 H 11.659097 v -76.21743 z"
         id="path4530" />
    </g>
    <path
       sodipodi:nodetypes="ccccccccccccccccccccc"
       inkscape:connector-curvature="0"
       id="path4714"
       d="m 172.30894,78.94277 h 6.17484 v -6.700559 h 7.02119 v 6.700559 h 7.02119 v -6.700559 h 7.02119 v 6.700559 h 7.02119 v -6.700559 h 7.02119 v 6.700559 h 7.02119 v -6.700559 h 7.0212 v 6.700559 h 7.02119 v -6.700559 h 7.02119 v 6.700559"
       style="fill:none;stroke:#000000;stroke-width:1.47995222;stroke-linecap:butt;stroke-linejoin:miter;stroke-miterlimit:4;stroke-dasharray:none;stroke-opacity:1" />
    <path
       id="path4718"
       style="fill:none;stroke:#000000;stroke-width:1.47995222;stroke-linecap:butt;stroke-linejoin:miter;stroke-miterlimit:4;stroke-dasharray:none;stroke-opacity:1"
       d="m 275.35196,49.483532 h 6.17484 v -6.700551 h 7.02119 v 6.700551 h 7.02119 v -6.700551 h 7.02119 v 6.700551 h 7.02119 v -6.700551 h 7.02119 v 6.700551 h 7.02119 v -6.700551 h 7.0212 v 6.700551 h 7.02119 v -6.700551 h 7.02119 v 7.439851 m -139.47111,-0.7393 h 6.17485 v -6.700551 h 7.02119 v 6.700551 h 7.02119 v -6.700551 h 7.02119 v 6.700551 h 7.02119 v -6.700551 h 7.02119 v 6.700551 h 7.02119 v -6.700551 h 7.0212 v 6.700551 h 7.02119 v -6.700551 h 7.02119 v 7.439851 m -139.4711,-0.7393 h 6.17483 v -6.700549 h 7.0212 v 6.700549 h 7.02119 v -6.700549 h 7.02119 v 6.700549 h 7.02119 v -6.700549 h 7.02119 v 6.700549 h 7.02119 v -6.700549 h 7.02119 v 6.700549 h 7.02119 v -6.700549 h 7.02119 v 7.439849"
       inkscape:connector-curvature="0" />
    <path
       inkscape:connector-curvature="0"
       id="path4732"
       d="M 147.67521,8.3679698 H 228.9023"
       style="fill:none;stroke:#000000;stroke-width:1.48000002;stroke-linecap:butt;stroke-linejoin:miter;stroke-miterlimit:4;stroke-dasharray:none;stroke-opacity:1" />
    <rect
       style="opacity:1;vector-effect:none;fill:#800000;fill-opacity:1;fill-rule:nonzero;stroke:#000000;stroke-width:1.48000002;stroke-linecap:square;stroke-linejoin:miter;stroke-miterlimit:4;stroke-dasharray:none;stroke-dashoffset:0;stroke-opacity:1;paint-order:fill markers stroke"
       id="rect4810"
       width="6.8975153"
       height="6.8975153"
       x="162.31902"
       y="23.879951"
       ry="0" />
    <path
       id="rect4850"
       style="opacity:1;vector-effect:none;fill:none;fill-opacity:1;fill-rule:nonzero;stroke:#ffffff;stroke-width:1.48000002;stroke-linecap:square;stroke-linejoin:miter;stroke-miterlimit:4;stroke-dasharray:none;stroke-dashoffset:0;stroke-opacity:1;paint-order:fill markers stroke"
       d="m -711.17492,-323.23907 h 6.89751 v 6.89752 h -6.89751 z m 0,182.08403 h 6.89751 v 6.89752 h -6.89751 z m 182.05099,0 h 6.89752 v 6.89752 h -6.89752 z m 0,-182.08403 h 6.89752 v 6.89752 h -6.89752 z m -2e-5,147.84859 v 6.17484 h 6.70055 v 7.02119 h -6.70055 v 7.02119 h 6.70055 v 7.02119 h -6.70055 v 6.9969 m 0,-104.34085 v 6.17485 h 6.70055 v 7.02119 h -6.70055 v 7.02119 h 6.70055 v 7.02119 h -6.70055 v 7.02119 h 6.70055 v 7.02118 h -6.70055 v 7.02119 h 6.70055 v 7.0212 h -6.70055 v 7.02119 h 6.70055 v 7.02119 h -6.69778 m -0.003,-139.47109 v 6.17483 h 6.70056 v 7.0212 h -6.70056 v 7.02119 h 6.70056 v 7.02119 h -6.70056 v 7.02119 h 6.70056 v 7.02119 h -6.70056 v 7.02119 h 6.70056 v 7.02119 h -6.70056 v 7.02119 h 6.70056 v 7.02119 h -6.7032 m -34.26115,-70.10553 h 6.17484 v -6.70055 h 7.02119 v 6.70055 h 7.02119 v -6.70055 h 7.02119 v 6.70055 h 7.02119 v -6.70055 l 0.004,0 m -104.36928,6.70055 h 6.17484 v -6.70055 h 7.02119 v 6.70055 h 7.02119 v -6.70055 h 7.02119 v 6.70055 h 7.02119 v -6.70055 h 7.02119 v 6.70055 h 7.02119 v -6.70055 h 7.0212 v 6.70055 h 7.02119 v -6.70055 h 7.02119 v 6.70072 m -139.47106,-1.7e-4 h 6.17483 v -6.70055 h 7.0212 v 6.70055 h 7.02119 v -6.70055 h 7.02119 v 6.70055 h 7.02119 v -6.70055 h 7.02119 v 6.70055 h 7.02119 v -6.70055 h 7.02119 v 6.70055 h 7.02119 v -6.70055 h 7.02119 v 6.69781 m -70.04409,34.23818 v -6.17485 h -6.70055 v -7.02119 h 6.70055 v -7.02119 h -6.70055 v -7.02119 h 6.70055 v -6.99742 m 0,104.34138 v -6.17485 h -6.70055 v -7.02119 h 6.70055 v -7.02119 h -6.70055 v -7.02119 h 6.70055 v -7.02119 h -6.70055 v -7.02118 h 6.70055 v -7.02119 h -6.70055 v -7.0212 h 6.70055 v -7.02119 h -6.70055 v -7.02119 h 7.43985 m -0.7393,139.47108 v -6.17483 h -6.70055 v -7.0212 h 6.70055 v -7.02119 h -6.70055 v -7.02119 h 6.70055 v -7.02119 h -6.70055 v -7.02119 h 6.70055 v -7.02119 h -6.70055 v -7.02118 h 6.70055 v -7.02119 h -6.70055 v -7.02119 h 7.43985 m 33.4631,70.10552 h -6.17485 v 6.70055 h -7.02119 v -6.70055 h -7.02119 v 6.70055 h -7.02119 v -6.70055 h -7.01654 m 104.3605,0 h -6.17485 v 6.70055 h -7.02119 v -6.70055 h -7.02119 v 6.70055 h -7.02119 v -6.70055 h -7.02119 v 6.70055 h -7.02118 v -6.70055 h -7.02119 v 6.70055 h -7.0212 v -6.70055 h -7.02119 v 6.70055 h -7.02119 v -7.43985 m 139.47108,0.7393 h -6.17483 v 6.70055 h -7.0212 v -6.70055 h -7.02119 v 6.70055 h -7.02119 v -6.70055 h -7.02118 v 6.70055 h -7.02119 v -6.70055 h -7.02119 v 6.70055 h -7.02119 v -6.70055 h -7.02119 v 6.70055 h -7.02119 v -7.43985"
       inkscape:connector-curvature="0" />
    <g
       id="g5061"
       inkscape:export-xdpi="150"
       inkscape:export-ydpi="150">
      <path
         style="opacity:1;vector-effect:none;fill:#720e0e;fill-opacity:1;fill-rule:nonzero;stroke:none;stroke-width:0.33975798;stroke-linecap:square;stroke-linejoin:miter;stroke-miterlimit:4;stroke-dasharray:none;stroke-dashoffset:0;stroke-opacity:1;paint-order:fill markers stroke"
         d="m -468.58412,-121.82841 c 69.47851,0 138.95703,0 208.43555,0 0,-69.47851 0,-138.95703 0,-208.43555 -69.47852,0 -138.95704,0 -208.43555,0 0,69.47852 0,138.95704 0,208.43555 z"
         id="path4876"
         inkscape:connector-curvature="0" />
      <path
         style="opacity:1;vector-effect:none;fill:#fdf9ee;fill-opacity:1;fill-rule:nonzero;stroke:none;stroke-width:0.33975798;stroke-linecap:square;stroke-linejoin:miter;stroke-miterlimit:4;stroke-dasharray:none;stroke-dashoffset:0;stroke-opacity:1;paint-order:fill markers stroke"
         d="m -464.58412,-125.82841 c 66.81185,0 133.6237,0 200.43555,0 0,-66.81185 0,-133.6237 0,-200.43555 -66.81185,0 -133.6237,0 -200.43555,0 0,66.81185 0,133.6237 0,200.43555 z"
         id="path4878"
         inkscape:connector-curvature="0" />
      <path
         style="opacity:1;vector-effect:none;fill:#720e0e;fill-opacity:1;fill-rule:nonzero;stroke:none;stroke-width:0.33975798;stroke-linecap:square;stroke-linejoin:miter;stroke-miterlimit:4;stroke-dasharray:none;stroke-dashoffset:0;stroke-opacity:1;paint-order:fill markers stroke"
         d="m -462.58412,-322.26396 c 0,64.81185 0,129.6237 0,194.43555 65.47851,0 130.95703,0 196.43555,0 0,-65.47851 0,-130.95703 0,-196.43555 -65.47852,0 -130.95704,0 -196.43555,0 v 1 z"
         id="path4880"
         inkscape:connector-curvature="0" />
      <g
         id="g4906"
         style="fill:#fdfbee;fill-opacity:1"
         transform="translate(-299.80873,-362.97294)">
        <path
           id="path4886"
           transform="scale(0.26458333)"
           d="m -19.949219,709.56445 v 32.00586 32.00781 32.00782 H 12.058594 44.066406 V 773.57812 H 12.058594 v -32.00781 h 32.007812 v -32.00586 z"
           style="fill:#fdfbee;fill-opacity:1;fill-rule:evenodd;stroke:none;stroke-width:0.99999994"
           inkscape:connector-curvature="0" />
        <path
           transform="scale(0.26458333)"
           id="path4888"
           d="M -91.964844,405.49414 V 741.57031 H -532.06641 v 64.01563 H -27.951172 V 741.57031 405.49414 Z"
           style="fill:#fdfbee;fill-opacity:1;fill-rule:evenodd;stroke:none;stroke-width:0.99999994"
           inkscape:connector-curvature="0" />
        <path
           id="path4890"
           transform="scale(0.26458333)"
           d="M -163.98242,485.51172 V 661.55273 H -468.05078 V 501.51562 h -64.01563 v 224.05079 h 64.01563 368.083983 V 661.55273 485.51172 Z"
           style="fill:#fdfbee;fill-opacity:1;fill-rule:evenodd;stroke:none;stroke-width:0.99999994"
           inkscape:connector-curvature="0" />
        <path
           inkscape:connector-curvature="0"
           style="fill:#fdfbee;fill-opacity:1;fill-rule:evenodd;stroke:none;stroke-width:0.26458332"
           d="m -68.792635,153.86429 v 16.93721 h 21.171512 v -16.93721 z"
           id="path4892" />
        <path
           inkscape:connector-curvature="0"
           style="fill:#fdfbee;fill-opacity:1;fill-rule:evenodd;stroke:none;stroke-width:0.26458332"
           d="m -119.60426,153.86429 v 16.93721 h 21.171514 v -16.93721 z"
           id="path4894" />
        <path
           inkscape:connector-curvature="0"
           style="fill:#fdfbee;fill-opacity:1;fill-rule:evenodd;stroke:none;stroke-width:0.26458332"
           d="m -94.198445,153.86429 v 16.93721 h 21.171509 v -16.93721 z"
           id="path4896" />
        <path
           id="path4898"
           transform="scale(0.26458333)"
           d="m -67.958984,229.45312 v 96.02344 h -32.007813 v -32.00781 h -64.015623 v 128.0293 H -179.98438 -244 v 80.01757 h -208.04688 v 64.01563 H -244 h 64.01562 v -96.02344 h 80.017583 V 421.49805 389.49023 H 44.066406 v -64.01367 h -64.015625 v -32.00781 h 64.015625 v -64.01563 h -64.015625 z"
           style="fill:#fdfbee;fill-opacity:1;fill-rule:evenodd;stroke:none;stroke-width:0.99999994"
           inkscape:connector-curvature="0" />
        <path
           id="path4900"
           transform="scale(0.26458333)"
           d="m -532.06641,229.45312 v 256.0586 h 64.01563 144.0332 64.01367 V 405.49414 357.48242 H -372.0293 v -64.01367 h 32.00782 v 48.00977 H -276.00781 -244 -179.98438 V 229.45312 H -244 v 48.01172 h -32.00781 v -48.01172 h -64.01367 -32.00782 -64.01367 v 128.0293 48.01172 h 112.02539 v 32.00781 h -144.0332 V 229.45312 Z"
           style="fill:#fdfbee;fill-opacity:1;fill-rule:evenodd;stroke:none;stroke-width:0.99999994"
           inkscape:connector-curvature="0" />
        <path
           inkscape:connector-curvature="0"
           style="fill:#fdfbee;fill-opacity:1;fill-rule:evenodd;stroke:none;stroke-width:0.26458332"
           d="m -64.558333,94.584067 v 12.702903 h 16.93721 V 94.584067 Z"
           id="path4902" />
        <path
           inkscape:connector-curvature="0"
           style="fill:#fdfbee;fill-opacity:1;fill-rule:evenodd;stroke:none;stroke-width:0.26458332"
           d="M -5.2781031,107.28697 V 183.5044 H 11.659097 v -76.21743 z"
           id="path4904" />
      </g>
      <path
         id="path4908"
         style="opacity:1;vector-effect:none;fill:none;fill-opacity:1;fill-rule:nonzero;stroke:#fdf9ee;stroke-width:1.48000002;stroke-linecap:square;stroke-linejoin:miter;stroke-miterlimit:4;stroke-dasharray:none;stroke-dashoffset:0;stroke-opacity:1;paint-order:fill markers stroke"
         d="m -459.82075,-320.06407 h 6.89751 v 6.89752 h -6.89751 z m 0,182.08403 h 6.89751 v 6.89752 h -6.89751 z m 182.05099,0 h 6.89752 v 6.89752 h -6.89752 z m 0,-182.08403 h 6.89752 v 6.89752 h -6.89752 z m -2e-5,147.84859 v 6.17484 h 6.70055 v 7.02119 h -6.70055 v 7.02119 h 6.70055 v 7.02119 h -6.70055 v 6.9969 m 0,-104.34085 v 6.17485 h 6.70055 v 7.02119 h -6.70055 v 7.02119 h 6.70055 v 7.02119 h -6.70055 v 7.02119 h 6.70055 v 7.02118 h -6.70055 v 7.02119 h 6.70055 v 7.0212 h -6.70055 v 7.02119 h 6.70055 v 7.02119 h -6.69778 m -0.003,-139.47109 v 6.17483 h 6.70056 v 7.0212 h -6.70056 v 7.02119 h 6.70056 v 7.02119 h -6.70056 v 7.02119 h 6.70056 v 7.02119 h -6.70056 v 7.02119 h 6.70056 v 7.02119 h -6.70056 v 7.02119 h 6.70056 v 7.02119 h -6.7032 m -34.26115,-70.10553 h 6.17484 v -6.70055 h 7.02119 v 6.70055 h 7.02119 v -6.70055 h 7.02119 v 6.70055 h 7.02119 v -6.70055 l 0.004,0 m -104.36928,6.70055 h 6.17484 v -6.70055 h 7.02119 v 6.70055 h 7.02119 v -6.70055 h 7.02119 v 6.70055 h 7.02119 v -6.70055 h 7.02119 v 6.70055 h 7.02119 v -6.70055 h 7.0212 v 6.70055 h 7.02119 v -6.70055 h 7.02119 v 6.70072 m -139.47106,-1.7e-4 h 6.17483 v -6.70055 h 7.0212 v 6.70055 h 7.02119 v -6.70055 h 7.02119 v 6.70055 h 7.02119 v -6.70055 h 7.02119 v 6.70055 h 7.02119 v -6.70055 h 7.02119 v 6.70055 h 7.02119 v -6.70055 h 7.02119 v 6.69781 m -70.04409,34.23818 v -6.17485 h -6.70055 v -7.02119 h 6.70055 v -7.02119 h -6.70055 v -7.02119 h 6.70055 v -6.99742 m 0,104.34138 v -6.17485 h -6.70055 v -7.02119 h 6.70055 v -7.02119 h -6.70055 v -7.02119 h 6.70055 v -7.02119 h -6.70055 v -7.02118 h 6.70055 v -7.02119 h -6.70055 v -7.0212 h 6.70055 v -7.02119 h -6.70055 v -7.02119 h 7.43985 m -0.7393,139.47108 v -6.17483 h -6.70055 v -7.0212 h 6.70055 v -7.02119 h -6.70055 v -7.02119 h 6.70055 v -7.02119 h -6.70055 v -7.02119 h 6.70055 v -7.02119 h -6.70055 v -7.02118 h 6.70055 v -7.02119 h -6.70055 v -7.02119 h 7.43985 m 33.4631,70.10552 h -6.17485 v 6.70055 h -7.02119 v -6.70055 h -7.02119 v 6.70055 h -7.02119 v -6.70055 h -7.01654 m 104.3605,0 h -6.17485 v 6.70055 h -7.02119 v -6.70055 h -7.02119 v 6.70055 h -7.02119 v -6.70055 h -7.02119 v 6.70055 h -7.02118 v -6.70055 h -7.02119 v 6.70055 h -7.0212 v -6.70055 h -7.02119 v 6.70055 h -7.02119 v -7.43985 m 139.47108,0.7393 h -6.17483 v 6.70055 h -7.0212 v -6.70055 h -7.02119 v 6.70055 h -7.02119 v -6.70055 h -7.02118 v 6.70055 h -7.02119 v -6.70055 h -7.02119 v 6.70055 h -7.02119 v -6.70055 h -7.02119 v 6.70055 h -7.02119 v -7.43985"
         inkscape:connector-curvature="0" />
    </g>
    <path
       inkscape:connector-curvature="0"
       id="path4914"
       d="m -714.46746,-85.726459 c 0,64.81185 0,129.6237 0,194.435549 65.47851,0 130.95703,0 196.43555,0 0,-65.478509 0,-130.957029 0,-196.435549 -65.47852,0 -130.95704,0 -196.43555,0 v 1 z"
       style="opacity:1;vector-effect:none;fill:#800000;fill-opacity:1;fill-rule:nonzero;stroke:none;stroke-width:0.33975798;stroke-linecap:square;stroke-linejoin:miter;stroke-miterlimit:4;stroke-dasharray:none;stroke-dashoffset:0;stroke-opacity:1;paint-order:fill markers stroke" />
    <path
       inkscape:connector-curvature="0"
       id="path4916"
       d="m -698.46746,92.709091 c 54.81185,0 109.6237,0 164.43555,0 0,-54.81185 0,-109.6237 0,-164.43555 -54.81185,0 -109.6237,0 -164.43555,0 0,54.81185 0,109.6237 0,164.43555 z"
       style="opacity:1;vector-effect:none;fill:#ffffff;fill-opacity:1;fill-rule:nonzero;stroke:none;stroke-width:0.33975798;stroke-linecap:square;stroke-linejoin:miter;stroke-miterlimit:4;stroke-dasharray:none;stroke-dashoffset:0;stroke-opacity:1;paint-order:fill markers stroke" />
    <path
       inkscape:connector-curvature="0"
       id="path4918"
       d="m -696.46746,90.709091 c 53.47851,0 106.95703,0 160.43555,0 0,-53.47851 0,-106.95703 0,-160.43555 -53.47852,0 -106.95704,0 -160.43555,0 0,53.47852 0,106.95704 0,160.43555 z"
       style="opacity:1;vector-effect:none;fill:#800000;fill-opacity:1;fill-rule:nonzero;stroke:none;stroke-width:0.33975798;stroke-linecap:square;stroke-linejoin:miter;stroke-miterlimit:4;stroke-dasharray:none;stroke-dashoffset:0;stroke-opacity:1;paint-order:fill markers stroke" />
    <g
       transform="translate(-551.69207,-126.43544)"
       style="fill:#ffffff"
       id="g4940">
      <path
         inkscape:connector-curvature="0"
         style="fill:#ffffff;fill-opacity:1;fill-rule:evenodd;stroke:none;stroke-width:0.99999994"
         d="m -19.949219,709.56445 v 32.00586 32.00781 32.00782 H 12.058594 44.066406 V 773.57812 H 12.058594 v -32.00781 h 32.007812 v -32.00586 z"
         transform="scale(0.26458333)"
         id="path4920" />
      <path
         inkscape:connector-curvature="0"
         style="fill:#ffffff;fill-opacity:1;fill-rule:evenodd;stroke:none;stroke-width:0.99999994"
         d="M -91.964844,405.49414 V 741.57031 H -532.06641 v 64.01563 H -27.951172 V 741.57031 405.49414 Z"
         id="path4922"
         transform="scale(0.26458333)" />
      <path
         inkscape:connector-curvature="0"
         style="fill:#ffffff;fill-opacity:1;fill-rule:evenodd;stroke:none;stroke-width:0.99999994"
         d="M -163.98242,485.51172 V 661.55273 H -468.05078 V 501.51562 h -64.01563 v 224.05079 h 64.01563 368.083983 V 661.55273 485.51172 Z"
         transform="scale(0.26458333)"
         id="path4924" />
      <path
         id="path4926"
         d="m -68.792635,153.86429 v 16.93721 h 21.171512 v -16.93721 z"
         style="fill:#ffffff;fill-opacity:1;fill-rule:evenodd;stroke:none;stroke-width:0.26458332"
         inkscape:connector-curvature="0" />
      <path
         id="path4928"
         d="m -119.60426,153.86429 v 16.93721 h 21.171514 v -16.93721 z"
         style="fill:#ffffff;fill-opacity:1;fill-rule:evenodd;stroke:none;stroke-width:0.26458332"
         inkscape:connector-curvature="0" />
      <path
         id="path4930"
         d="m -94.198445,153.86429 v 16.93721 h 21.171509 v -16.93721 z"
         style="fill:#ffffff;fill-opacity:1;fill-rule:evenodd;stroke:none;stroke-width:0.26458332"
         inkscape:connector-curvature="0" />
      <path
         inkscape:connector-curvature="0"
         style="fill:#ffffff;fill-opacity:1;fill-rule:evenodd;stroke:none;stroke-width:0.99999994"
         d="m -67.958984,229.45312 v 96.02344 h -32.007813 v -32.00781 h -64.015623 v 128.0293 H -179.98438 -244 v 80.01757 h -208.04688 v 64.01563 H -244 h 64.01562 v -96.02344 h 80.017583 V 421.49805 389.49023 H 44.066406 v -64.01367 h -64.015625 v -32.00781 h 64.015625 v -64.01563 h -64.015625 z"
         transform="scale(0.26458333)"
         id="path4932" />
      <path
         inkscape:connector-curvature="0"
         style="fill:#ffffff;fill-opacity:1;fill-rule:evenodd;stroke:none;stroke-width:0.99999994"
         d="m -532.06641,229.45312 v 256.0586 h 64.01563 144.0332 64.01367 V 405.49414 357.48242 H -372.0293 v -64.01367 h 32.00782 v 48.00977 H -276.00781 -244 -179.98438 V 229.45312 H -244 v 48.01172 h -32.00781 v -48.01172 h -64.01367 -32.00782 -64.01367 v 128.0293 48.01172 h 112.02539 v 32.00781 h -144.0332 V 229.45312 Z"
         transform="scale(0.26458333)"
         id="path4934" />
      <path
         id="path4936"
         d="m -64.558333,94.584067 v 12.702903 h 16.93721 V 94.584067 Z"
         style="fill:#ffffff;fill-opacity:1;fill-rule:evenodd;stroke:none;stroke-width:0.26458332"
         inkscape:connector-curvature="0" />
      <path
         id="path4938"
         d="M -5.2781031,107.28697 V 183.5044 H 11.659097 v -76.21743 z"
         style="fill:#ffffff;fill-opacity:1;fill-rule:evenodd;stroke:none;stroke-width:0.26458332"
         inkscape:connector-curvature="0" />
    </g>
    <path
       inkscape:connector-curvature="0"
       id="path4948"
       d="m -460.24605,-83.720399 c 0,64.81185 0,129.6237 0,194.435549 65.47851,0 130.95703,0 196.43555,0 0,-65.478509 0,-130.957029 0,-196.435549 -65.47852,0 -130.95704,0 -196.43555,0 v 1 z"
       style="opacity:1;vector-effect:none;fill:#800000;fill-opacity:1;fill-rule:nonzero;stroke:none;stroke-width:0.33975798;stroke-linecap:square;stroke-linejoin:miter;stroke-miterlimit:4;stroke-dasharray:none;stroke-dashoffset:0;stroke-opacity:1;paint-order:fill markers stroke" />
    <path
       inkscape:connector-curvature="0"
       id="path4950"
       d="m -444.24605,94.715151 c 54.81185,0 109.6237,0 164.43555,0 0,-54.81185 0,-109.6237 0,-164.43555 -54.81185,0 -109.6237,0 -164.43555,0 0,54.81185 0,109.6237 0,164.43555 z"
       style="opacity:1;vector-effect:none;fill:#ffffff;fill-opacity:1;fill-rule:nonzero;stroke:none;stroke-width:0.33975798;stroke-linecap:square;stroke-linejoin:miter;stroke-miterlimit:4;stroke-dasharray:none;stroke-dashoffset:0;stroke-opacity:1;paint-order:fill markers stroke" />
    <path
       inkscape:connector-curvature="0"
       id="path4952"
       d="m -442.24605,92.715151 c 53.47851,0 106.95703,0 160.43555,0 0,-53.47851 0,-106.95703 0,-160.43555 -53.47852,0 -106.95704,0 -160.43555,0 0,53.47852 0,106.95704 0,160.43555 z"
       style="opacity:1;vector-effect:none;fill:#800000;fill-opacity:1;fill-rule:nonzero;stroke:none;stroke-width:0.33975798;stroke-linecap:square;stroke-linejoin:miter;stroke-miterlimit:4;stroke-dasharray:none;stroke-dashoffset:0;stroke-opacity:1;paint-order:fill markers stroke" />
    <g
       transform="translate(-297.47066,-124.42938)"
       style="fill:#ffffff"
       id="g4974">
      <path
         inkscape:connector-curvature="0"
         style="fill:#ffffff;fill-opacity:1;fill-rule:evenodd;stroke:none;stroke-width:0.99999994"
         d="m -19.949219,709.56445 v 32.00586 32.00781 32.00782 H 12.058594 44.066406 V 773.57812 H 12.058594 v -32.00781 h 32.007812 v -32.00586 z"
         transform="scale(0.26458333)"
         id="path4954" />
      <path
         inkscape:connector-curvature="0"
         style="fill:#ffffff;fill-opacity:1;fill-rule:evenodd;stroke:none;stroke-width:0.99999994"
         d="M -91.964844,405.49414 V 741.57031 H -532.06641 v 64.01563 H -27.951172 V 741.57031 405.49414 Z"
         id="path4956"
         transform="scale(0.26458333)" />
      <path
         inkscape:connector-curvature="0"
         style="fill:#ffffff;fill-opacity:1;fill-rule:evenodd;stroke:none;stroke-width:0.99999994"
         d="M -163.98242,485.51172 V 661.55273 H -468.05078 V 501.51562 h -64.01563 v 224.05079 h 64.01563 368.083983 V 661.55273 485.51172 Z"
         transform="scale(0.26458333)"
         id="path4958" />
      <path
         id="path4960"
         d="m -68.792635,153.86429 v 16.93721 h 21.171512 v -16.93721 z"
         style="fill:#ffffff;fill-opacity:1;fill-rule:evenodd;stroke:none;stroke-width:0.26458332"
         inkscape:connector-curvature="0" />
      <path
         id="path4962"
         d="m -119.60426,153.86429 v 16.93721 h 21.171514 v -16.93721 z"
         style="fill:#ffffff;fill-opacity:1;fill-rule:evenodd;stroke:none;stroke-width:0.26458332"
         inkscape:connector-curvature="0" />
      <path
         id="path4964"
         d="m -94.198445,153.86429 v 16.93721 h 21.171509 v -16.93721 z"
         style="fill:#ffffff;fill-opacity:1;fill-rule:evenodd;stroke:none;stroke-width:0.26458332"
         inkscape:connector-curvature="0" />
      <path
         inkscape:connector-curvature="0"
         style="fill:#ffffff;fill-opacity:1;fill-rule:evenodd;stroke:none;stroke-width:0.99999994"
         d="m -67.958984,229.45312 v 96.02344 h -32.007813 v -32.00781 h -64.015623 v 128.0293 H -179.98438 -244 v 80.01757 h -208.04688 v 64.01563 H -244 h 64.01562 v -96.02344 h 80.017583 V 421.49805 389.49023 H 44.066406 v -64.01367 h -64.015625 v -32.00781 h 64.015625 v -64.01563 h -64.015625 z"
         transform="scale(0.26458333)"
         id="path4966" />
      <path
         inkscape:connector-curvature="0"
         style="fill:#ffffff;fill-opacity:1;fill-rule:evenodd;stroke:none;stroke-width:0.99999994"
         d="m -532.06641,229.45312 v 256.0586 h 64.01563 144.0332 64.01367 V 405.49414 357.48242 H -372.0293 v -64.01367 h 32.00782 v 48.00977 H -276.00781 -244 -179.98438 V 229.45312 H -244 v 48.01172 h -32.00781 v -48.01172 h -64.01367 -32.00782 -64.01367 v 128.0293 48.01172 h 112.02539 v 32.00781 h -144.0332 V 229.45312 Z"
         transform="scale(0.26458333)"
         id="path4968" />
      <path
         id="path4970"
         d="m -64.558333,94.584067 v 12.702903 h 16.93721 V 94.584067 Z"
         style="fill:#ffffff;fill-opacity:1;fill-rule:evenodd;stroke:none;stroke-width:0.26458332"
         inkscape:connector-curvature="0" />
      <path
         id="path4972"
         d="M -5.2781031,107.28697 V 183.5044 H 11.659097 v -76.21743 z"
         style="fill:#ffffff;fill-opacity:1;fill-rule:evenodd;stroke:none;stroke-width:0.26458332"
         inkscape:connector-curvature="0" />
    </g>
    <path
       inkscape:connector-curvature="0"
       d="m -457.48268,-81.520509 h 6.89751 v 6.89752 h -6.89751 z m 0,182.084029 h 6.89751 v 6.89752 h -6.89751 z m 182.05099,0 h 6.89752 v 6.89752 h -6.89752 z m 0,-182.084029 h 6.89752 v 6.89752 h -6.89752 z m -2e-5,147.84859 v 6.17484 h 6.70055 v 7.02119 h -6.70055 v 7.02119 h 6.70055 v 7.02119 h -6.70055 v 6.996899 m 0,-104.340849 v 6.17485 h 6.70055 v 7.02119 h -6.70055 v 7.02119 h 6.70055 v 7.02119 h -6.70055 v 7.02119 h 6.70055 v 7.02118 h -6.70055 v 7.02119 h 6.70055 v 7.0212 h -6.70055 v 7.02119 h 6.70055 v 7.02119 h -6.69778 m -0.003,-139.47109 v 6.17483 h 6.70056 v 7.0212 h -6.70056 v 7.02119 h 6.70056 v 7.02119 h -6.70056 v 7.02119 h 6.70056 v 7.02119 h -6.70056 v 7.02119 h 6.70056 v 7.02119 h -6.70056 v 7.02119 h 6.70056 v 7.02119 h -6.7032 m -34.26115,-70.10553 h 6.17484 v -6.70055 h 7.02119 v 6.70055 h 7.02119 v -6.70055 h 7.02119 v 6.70055 h 7.02119 v -6.70055 h 0.004 m -104.36928,6.70055 h 6.17484 v -6.70055 h 7.02119 v 6.70055 h 7.02119 v -6.70055 h 7.02119 v 6.70055 h 7.02119 v -6.70055 h 7.02119 v 6.70055 h 7.02119 v -6.70055 h 7.0212 v 6.70055 h 7.02119 v -6.70055 h 7.02119 v 6.70072 m -139.47106,-1.7e-4 h 6.17483 v -6.70055 h 7.0212 v 6.70055 h 7.02119 v -6.70055 h 7.02119 v 6.70055 h 7.02119 v -6.70055 h 7.02119 v 6.70055 h 7.02119 v -6.70055 h 7.02119 v 6.70055 h 7.02119 v -6.70055 h 7.02119 v 6.69781 m -70.04409,34.23818 v -6.17485 h -6.70055 v -7.02119 h 6.70055 v -7.02119 h -6.70055 v -7.02119 h 6.70055 v -6.99742 m 0,104.34138 v -6.17485 h -6.70055 v -7.02119 h 6.70055 v -7.02119 h -6.70055 v -7.02119 h 6.70055 v -7.02119 h -6.70055 v -7.02118 h 6.70055 v -7.02119 h -6.70055 v -7.0212 h 6.70055 v -7.02119 h -6.70055 v -7.02119 h 7.43985 m -0.7393,139.47108 v -6.17483 h -6.70055 v -7.0212 h 6.70055 v -7.02119 h -6.70055 v -7.02119 h 6.70055 v -7.02119 h -6.70055 v -7.02119 h 6.70055 v -7.02119 h -6.70055 v -7.02118 h 6.70055 v -7.02119 h -6.70055 v -7.02119 h 7.43985 m 33.4631,70.105519 h -6.17485 v 6.70055 h -7.02119 v -6.70055 h -7.02119 v 6.70055 h -7.02119 v -6.70055 h -7.01654 m 104.3605,0 h -6.17485 v 6.70055 h -7.02119 v -6.70055 h -7.02119 v 6.70055 h -7.02119 v -6.70055 h -7.02119 v 6.70055 h -7.02118 v -6.70055 h -7.02119 v 6.70055 h -7.0212 v -6.70055 h -7.02119 v 6.70055 h -7.02119 v -7.439849 m 139.47108,0.739299 h -6.17483 v 6.70055 h -7.0212 v -6.70055 h -7.02119 v 6.70055 h -7.02119 v -6.70055 h -7.02118 v 6.70055 h -7.02119 v -6.70055 h -7.02119 v 6.70055 h -7.02119 v -6.70055 h -7.02119 v 6.70055 h -7.02119 v -7.439849"
       style="opacity:1;vector-effect:none;fill:none;fill-opacity:1;fill-rule:nonzero;stroke:#ffffff;stroke-width:1.48000002;stroke-linecap:square;stroke-linejoin:miter;stroke-miterlimit:4;stroke-dasharray:none;stroke-dashoffset:0;stroke-opacity:1;paint-order:fill markers stroke"
       id="path4976" />
    <path
       inkscape:connector-curvature="0"
       id="path4982"
       d="m -234.24294,-320.20048 c 0,64.81185 0,129.6237 0,194.43555 65.47851,0 130.95703,0 196.435549,0 0,-65.47851 0,-130.95703 0,-196.43555 -65.478519,0 -130.957039,0 -196.435549,0 v 1 z"
       style="opacity:1;vector-effect:none;fill:#800000;fill-opacity:1;fill-rule:nonzero;stroke:none;stroke-width:0.33975798;stroke-linecap:square;stroke-linejoin:miter;stroke-miterlimit:4;stroke-dasharray:none;stroke-dashoffset:0;stroke-opacity:1;paint-order:fill markers stroke" />
    <g
       transform="translate(-71.467551,-360.90946)"
       style="fill:#ffffff"
       id="g5008">
      <path
         inkscape:connector-curvature="0"
         style="fill:#ffffff;fill-opacity:1;fill-rule:evenodd;stroke:none;stroke-width:0.99999994"
         d="m -19.949219,709.56445 v 32.00586 32.00781 32.00782 H 12.058594 44.066406 V 773.57812 H 12.058594 v -32.00781 h 32.007812 v -32.00586 z"
         transform="scale(0.26458333)"
         id="path4988" />
      <path
         inkscape:connector-curvature="0"
         style="fill:#ffffff;fill-opacity:1;fill-rule:evenodd;stroke:none;stroke-width:0.99999994"
         d="M -91.964844,405.49414 V 741.57031 H -532.06641 v 64.01563 H -27.951172 V 741.57031 405.49414 Z"
         id="path4990"
         transform="scale(0.26458333)" />
      <path
         inkscape:connector-curvature="0"
         style="fill:#ffffff;fill-opacity:1;fill-rule:evenodd;stroke:none;stroke-width:0.99999994"
         d="M -163.98242,485.51172 V 661.55273 H -468.05078 V 501.51562 h -64.01563 v 224.05079 h 64.01563 368.083983 V 661.55273 485.51172 Z"
         transform="scale(0.26458333)"
         id="path4992" />
      <path
         id="path4994"
         d="m -68.792635,153.86429 v 16.93721 h 21.171512 v -16.93721 z"
         style="fill:#ffffff;fill-opacity:1;fill-rule:evenodd;stroke:none;stroke-width:0.26458332"
         inkscape:connector-curvature="0" />
      <path
         id="path4996"
         d="m -119.60426,153.86429 v 16.93721 h 21.171514 v -16.93721 z"
         style="fill:#ffffff;fill-opacity:1;fill-rule:evenodd;stroke:none;stroke-width:0.26458332"
         inkscape:connector-curvature="0" />
      <path
         id="path4998"
         d="m -94.198445,153.86429 v 16.93721 h 21.171509 v -16.93721 z"
         style="fill:#ffffff;fill-opacity:1;fill-rule:evenodd;stroke:none;stroke-width:0.26458332"
         inkscape:connector-curvature="0" />
      <path
         inkscape:connector-curvature="0"
         style="fill:#ffffff;fill-opacity:1;fill-rule:evenodd;stroke:none;stroke-width:0.99999994"
         d="m -67.958984,229.45312 v 96.02344 h -32.007813 v -32.00781 h -64.015623 v 128.0293 H -179.98438 -244 v 80.01757 h -208.04688 v 64.01563 H -244 h 64.01562 v -96.02344 h 80.017583 V 421.49805 389.49023 H 44.066406 v -64.01367 h -64.015625 v -32.00781 h 64.015625 v -64.01563 h -64.015625 z"
         transform="scale(0.26458333)"
         id="path5000" />
      <path
         inkscape:connector-curvature="0"
         style="fill:#ffffff;fill-opacity:1;fill-rule:evenodd;stroke:none;stroke-width:0.99999994"
         d="m -532.06641,229.45312 v 256.0586 h 64.01563 144.0332 64.01367 V 405.49414 357.48242 H -372.0293 v -64.01367 h 32.00782 v 48.00977 H -276.00781 -244 -179.98438 V 229.45312 H -244 v 48.01172 h -32.00781 v -48.01172 h -64.01367 -32.00782 -64.01367 v 128.0293 48.01172 h 112.02539 v 32.00781 h -144.0332 V 229.45312 Z"
         transform="scale(0.26458333)"
         id="path5002" />
      <path
         id="path5004"
         d="m -64.558333,94.584067 v 12.702903 h 16.93721 V 94.584067 Z"
         style="fill:#ffffff;fill-opacity:1;fill-rule:evenodd;stroke:none;stroke-width:0.26458332"
         inkscape:connector-curvature="0" />
      <path
         id="path5006"
         d="M -5.2781031,107.28697 V 183.5044 H 11.659097 v -76.21743 z"
         style="fill:#ffffff;fill-opacity:1;fill-rule:evenodd;stroke:none;stroke-width:0.26458332"
         inkscape:connector-curvature="0" />
    </g>
    <path
       inkscape:connector-curvature="0"
       d="m -231.47957,-318.00059 h 6.89751 v 6.89752 h -6.89751 z m 0,182.08403 h 6.89751 v 6.89752 h -6.89751 z m 182.050989,0 h 6.89752 v 6.89752 h -6.89752 z m 0,-182.08403 h 6.89752 v 6.89752 h -6.89752 z m -2e-5,147.84859 v 6.17484 h 6.70055 v 7.02119 h -6.70055 v 7.02119 h 6.70055 v 7.02119 h -6.70055 v 6.9969 m 0,-104.34085 v 6.17485 h 6.70055 v 7.02119 h -6.70055 v 7.02119 h 6.70055 v 7.02119 h -6.70055 v 7.02119 h 6.70055 v 7.02118 h -6.70055 v 7.02119 h 6.70055 v 7.0212 h -6.70055 v 7.02119 h 6.70055 v 7.02119 h -6.69778 m -0.003,-139.47109 v 6.17483 h 6.70056 v 7.0212 h -6.70056 v 7.02119 h 6.70056 v 7.02119 h -6.70056 v 7.02119 h 6.70056 v 7.02119 h -6.70056 v 7.02119 h 6.70056 v 7.02119 h -6.70056 v 7.02119 h 6.70056 v 7.02119 h -6.7032 m -34.26115,-70.10553 h 6.17484 v -6.70055 h 7.02119 v 6.70055 h 7.02119 v -6.70055 h 7.02119 v 6.70055 h 7.02119 v -6.70055 h 0.004 m -104.369279,6.70055 h 6.17484 v -6.70055 h 7.02119 v 6.70055 h 7.02119 v -6.70055 h 7.02119 v 6.70055 h 7.02119 v -6.70055 h 7.02119 v 6.70055 h 7.02119 v -6.70055 h 7.021199 v 6.70055 h 7.02119 v -6.70055 h 7.02119 v 6.70072 m -139.471059,-1.7e-4 h 6.17483 v -6.70055 h 7.0212 v 6.70055 h 7.02119 v -6.70055 h 7.02119 v 6.70055 h 7.02119 v -6.70055 h 7.02119 v 6.70055 h 7.02119 v -6.70055 h 7.02119 v 6.70055 h 7.02119 v -6.70055 h 7.02119 v 6.69781 m -70.04409,34.23818 v -6.17485 h -6.70055 v -7.02119 h 6.70055 v -7.02119 h -6.70055 v -7.02119 h 6.70055 v -6.99742 m 0,104.34138 v -6.17485 h -6.70055 v -7.02119 h 6.70055 v -7.02119 h -6.70055 v -7.02119 h 6.70055 v -7.02119 h -6.70055 v -7.02118 h 6.70055 v -7.02119 h -6.70055 v -7.0212 h 6.70055 v -7.02119 h -6.70055 v -7.02119 h 7.43985 m -0.7393,139.47108 v -6.17483 h -6.70055 v -7.0212 h 6.70055 v -7.02119 h -6.70055 v -7.02119 h 6.70055 v -7.02119 h -6.70055 v -7.02119 h 6.70055 v -7.02119 h -6.70055 v -7.02118 h 6.70055 v -7.02119 h -6.70055 v -7.02119 h 7.43985 m 33.4631,70.10552 h -6.17485 v 6.70055 h -7.02119 v -6.70055 h -7.02119 v 6.70055 h -7.02119 v -6.70055 h -7.01654 m 104.3605,0 h -6.17485 v 6.70055 h -7.02119 v -6.70055 h -7.02119 v 6.70055 h -7.02119 v -6.70055 h -7.02119 v 6.70055 h -7.02118 v -6.70055 h -7.02119 v 6.70055 h -7.0212 v -6.70055 h -7.02119 v 6.70055 h -7.02119 v -7.43985 m 139.471079,0.7393 h -6.17483 v 6.70055 h -7.0212 v -6.70055 h -7.02119 v 6.70055 h -7.02119 v -6.70055 h -7.02118 v 6.70055 h -7.02119 v -6.70055 h -7.02119 v 6.70055 h -7.021189 v -6.70055 h -7.02119 v 6.70055 h -7.02119 v -7.43985"
       style="opacity:1;vector-effect:none;fill:none;fill-opacity:1;fill-rule:nonzero;stroke:#ffffff;stroke-width:1.48000002;stroke-linecap:square;stroke-linejoin:miter;stroke-miterlimit:4;stroke-dasharray:none;stroke-dashoffset:0;stroke-opacity:1;paint-order:fill markers stroke"
       id="path5010" />
    <path
       inkscape:connector-curvature="0"
       id="path5012"
       d="m -235.00446,120.45692 c 69.47851,0 138.957031,0 208.435551,0 0,-69.478506 0,-138.957026 0,-208.435546 -69.47852,0 -138.957041,0 -208.435551,0 0,69.47852 0,138.95704 0,208.435546 z"
       style="opacity:1;vector-effect:none;fill:#800000;fill-opacity:1;fill-rule:nonzero;stroke:none;stroke-width:0.33975798;stroke-linecap:square;stroke-linejoin:miter;stroke-miterlimit:4;stroke-dasharray:none;stroke-dashoffset:0;stroke-opacity:1;paint-order:fill markers stroke" />
    <path
       inkscape:connector-curvature="0"
       id="path5014"
       d="m -231.00446,116.45692 c 66.81185,0 133.623701,0 200.435551,0 0,-66.811846 0,-133.623696 0,-200.435546 -66.81185,0 -133.623701,0 -200.435551,0 0,66.81185 0,133.6237 0,200.435546 z"
       style="opacity:1;vector-effect:none;fill:#ffffff;fill-opacity:1;fill-rule:nonzero;stroke:none;stroke-width:0.33975798;stroke-linecap:square;stroke-linejoin:miter;stroke-miterlimit:4;stroke-dasharray:none;stroke-dashoffset:0;stroke-opacity:1;paint-order:fill markers stroke" />
    <path
       inkscape:connector-curvature="0"
       id="path5016"
       d="m -229.00446,-79.978626 c 0,64.81185 0,129.6237 0,194.435546 65.47851,0 130.957031,0 196.435551,0 0,-65.478506 0,-130.957026 0,-196.435546 -65.47852,0 -130.957041,0 -196.435551,0 v 1 z"
       style="opacity:1;vector-effect:none;fill:#800000;fill-opacity:1;fill-rule:nonzero;stroke:none;stroke-width:0.33975798;stroke-linecap:square;stroke-linejoin:miter;stroke-miterlimit:4;stroke-dasharray:none;stroke-dashoffset:0;stroke-opacity:1;paint-order:fill markers stroke" />
    <path
       inkscape:connector-curvature="0"
       id="path5018"
       d="m -213.00446,98.456924 c 54.81185,0 109.6237,0 164.435551,0 0,-54.81185 0,-109.6237 0,-164.43555 -54.811851,0 -109.623701,0 -164.435551,0 0,54.81185 0,109.6237 0,164.43555 z"
       style="opacity:1;vector-effect:none;fill:#ffffff;fill-opacity:1;fill-rule:nonzero;stroke:none;stroke-width:0.33975798;stroke-linecap:square;stroke-linejoin:miter;stroke-miterlimit:4;stroke-dasharray:none;stroke-dashoffset:0;stroke-opacity:1;paint-order:fill markers stroke" />
    <path
       inkscape:connector-curvature="0"
       id="path5020"
       d="m -211.00446,96.456924 c 53.47851,0 106.95703,0 160.435551,0 0,-53.47851 0,-106.95703 0,-160.43555 -53.478521,0 -106.957041,0 -160.435551,0 0,53.47852 0,106.95704 0,160.43555 z"
       style="opacity:1;vector-effect:none;fill:#800000;fill-opacity:1;fill-rule:nonzero;stroke:none;stroke-width:0.33975798;stroke-linecap:square;stroke-linejoin:miter;stroke-miterlimit:4;stroke-dasharray:none;stroke-dashoffset:0;stroke-opacity:1;paint-order:fill markers stroke" />
    <g
       transform="translate(-66.229069,-120.68761)"
       style="fill:#ffffff"
       id="g5042">
      <path
         inkscape:connector-curvature="0"
         style="fill:#ffffff;fill-opacity:1;fill-rule:evenodd;stroke:none;stroke-width:0.99999994"
         d="m -19.949219,709.56445 v 32.00586 32.00781 32.00782 H 12.058594 44.066406 V 773.57812 H 12.058594 v -32.00781 h 32.007812 v -32.00586 z"
         transform="scale(0.26458333)"
         id="path5022" />
      <path
         inkscape:connector-curvature="0"
         style="fill:#ffffff;fill-opacity:1;fill-rule:evenodd;stroke:none;stroke-width:0.99999994"
         d="M -91.964844,405.49414 V 741.57031 H -532.06641 v 64.01563 H -27.951172 V 741.57031 405.49414 Z"
         id="path5024"
         transform="scale(0.26458333)" />
      <path
         inkscape:connector-curvature="0"
         style="fill:#ffffff;fill-opacity:1;fill-rule:evenodd;stroke:none;stroke-width:0.99999994"
         d="M -163.98242,485.51172 V 661.55273 H -468.05078 V 501.51562 h -64.01563 v 224.05079 h 64.01563 368.083983 V 661.55273 485.51172 Z"
         transform="scale(0.26458333)"
         id="path5026" />
      <path
         id="path5028"
         d="m -68.792635,153.86429 v 16.93721 h 21.171512 v -16.93721 z"
         style="fill:#ffffff;fill-opacity:1;fill-rule:evenodd;stroke:none;stroke-width:0.26458332"
         inkscape:connector-curvature="0" />
      <path
         id="path5030"
         d="m -119.60426,153.86429 v 16.93721 h 21.171514 v -16.93721 z"
         style="fill:#ffffff;fill-opacity:1;fill-rule:evenodd;stroke:none;stroke-width:0.26458332"
         inkscape:connector-curvature="0" />
      <path
         id="path5032"
         d="m -94.198445,153.86429 v 16.93721 h 21.171509 v -16.93721 z"
         style="fill:#ffffff;fill-opacity:1;fill-rule:evenodd;stroke:none;stroke-width:0.26458332"
         inkscape:connector-curvature="0" />
      <path
         inkscape:connector-curvature="0"
         style="fill:#ffffff;fill-opacity:1;fill-rule:evenodd;stroke:none;stroke-width:0.99999994"
         d="m -67.958984,229.45312 v 96.02344 h -32.007813 v -32.00781 h -64.015623 v 128.0293 H -179.98438 -244 v 80.01757 h -208.04688 v 64.01563 H -244 h 64.01562 v -96.02344 h 80.017583 V 421.49805 389.49023 H 44.066406 v -64.01367 h -64.015625 v -32.00781 h 64.015625 v -64.01563 h -64.015625 z"
         transform="scale(0.26458333)"
         id="path5034" />
      <path
         inkscape:connector-curvature="0"
         style="fill:#ffffff;fill-opacity:1;fill-rule:evenodd;stroke:none;stroke-width:0.99999994"
         d="m -532.06641,229.45312 v 256.0586 h 64.01563 144.0332 64.01367 V 405.49414 357.48242 H -372.0293 v -64.01367 h 32.00782 v 48.00977 H -276.00781 -244 -179.98438 V 229.45312 H -244 v 48.01172 h -32.00781 v -48.01172 h -64.01367 -32.00782 -64.01367 v 128.0293 48.01172 h 112.02539 v 32.00781 h -144.0332 V 229.45312 Z"
         transform="scale(0.26458333)"
         id="path5036" />
      <path
         id="path5038"
         d="m -64.558333,94.584067 v 12.702903 h 16.93721 V 94.584067 Z"
         style="fill:#ffffff;fill-opacity:1;fill-rule:evenodd;stroke:none;stroke-width:0.26458332"
         inkscape:connector-curvature="0" />
      <path
         id="path5040"
         d="M -5.2781031,107.28697 V 183.5044 H 11.659097 v -76.21743 z"
         style="fill:#ffffff;fill-opacity:1;fill-rule:evenodd;stroke:none;stroke-width:0.26458332"
         inkscape:connector-curvature="0" />
    </g>
  </g>
</svg>
